<mxfile host="app.diagrams.net" modified="2022-11-15T08:06:57.514Z" agent="5.0 (Windows NT 10.0; Win64; x64) AppleWebKit/537.36 (KHTML, like Gecko) Chrome/107.0.0.0 Safari/537.36 Edg/107.0.1418.35" etag="VJ3YKG2IpC5nBdbmCrHI" version="20.5.1" type="github">
  <diagram id="rCTj0MCx4Ofzy-mjGSed" name="第 1 页">
    <mxGraphModel dx="2044" dy="-3216" grid="1" gridSize="10" guides="1" tooltips="1" connect="1" arrows="1" fold="1" page="1" pageScale="1" pageWidth="827" pageHeight="1169" math="0" shadow="0">
      <root>
        <mxCell id="0" />
        <mxCell id="1" parent="0" />
        <mxCell id="69FnCZtDJT8fpM_irl-X-1" value="" style="rounded=0;whiteSpace=wrap;html=1;fontSize=10;dashed=1;" vertex="1" parent="1">
          <mxGeometry x="752" y="5465" width="595.5" height="430" as="geometry" />
        </mxCell>
        <mxCell id="69FnCZtDJT8fpM_irl-X-2" value="cyan" style="ellipse;shape=cloud;whiteSpace=wrap;html=1;strokeColor=#B3B3B3;" vertex="1" parent="1">
          <mxGeometry x="437.5" y="4850" width="120" height="80" as="geometry" />
        </mxCell>
        <mxCell id="69FnCZtDJT8fpM_irl-X-3" style="edgeStyle=orthogonalEdgeStyle;rounded=0;orthogonalLoop=1;jettySize=auto;html=1;entryX=0;entryY=0.5;entryDx=0;entryDy=0;" edge="1" parent="1" source="69FnCZtDJT8fpM_irl-X-4" target="69FnCZtDJT8fpM_irl-X-8">
          <mxGeometry relative="1" as="geometry" />
        </mxCell>
        <mxCell id="69FnCZtDJT8fpM_irl-X-4" value="Actor" style="shape=umlActor;verticalLabelPosition=bottom;verticalAlign=top;html=1;outlineConnect=0;strokeColor=#B3B3B3;" vertex="1" parent="1">
          <mxGeometry x="347.5" y="5012" width="30" height="60" as="geometry" />
        </mxCell>
        <mxCell id="69FnCZtDJT8fpM_irl-X-5" style="edgeStyle=orthogonalEdgeStyle;rounded=0;orthogonalLoop=1;jettySize=auto;html=1;entryX=0.5;entryY=0;entryDx=0;entryDy=0;" edge="1" parent="1" source="69FnCZtDJT8fpM_irl-X-8" target="69FnCZtDJT8fpM_irl-X-10">
          <mxGeometry relative="1" as="geometry">
            <mxPoint x="482.52857142857135" y="5072" as="targetPoint" />
          </mxGeometry>
        </mxCell>
        <mxCell id="69FnCZtDJT8fpM_irl-X-6" style="edgeStyle=orthogonalEdgeStyle;rounded=0;orthogonalLoop=1;jettySize=auto;html=1;entryX=0.5;entryY=0;entryDx=0;entryDy=0;" edge="1" parent="1" source="69FnCZtDJT8fpM_irl-X-8" target="69FnCZtDJT8fpM_irl-X-12">
          <mxGeometry relative="1" as="geometry" />
        </mxCell>
        <mxCell id="69FnCZtDJT8fpM_irl-X-7" value="" style="edgeStyle=orthogonalEdgeStyle;rounded=0;orthogonalLoop=1;jettySize=auto;html=1;" edge="1" parent="1" source="69FnCZtDJT8fpM_irl-X-8" target="69FnCZtDJT8fpM_irl-X-15">
          <mxGeometry relative="1" as="geometry" />
        </mxCell>
        <mxCell id="69FnCZtDJT8fpM_irl-X-8" value="初始化" style="rounded=0;whiteSpace=wrap;html=1;strokeColor=#B3B3B3;" vertex="1" parent="1">
          <mxGeometry x="446.25" y="5012" width="72.5" height="28" as="geometry" />
        </mxCell>
        <mxCell id="69FnCZtDJT8fpM_irl-X-9" style="edgeStyle=orthogonalEdgeStyle;rounded=0;orthogonalLoop=1;jettySize=auto;html=1;entryX=0.5;entryY=0;entryDx=0;entryDy=0;" edge="1" parent="1" source="69FnCZtDJT8fpM_irl-X-10" target="69FnCZtDJT8fpM_irl-X-17">
          <mxGeometry relative="1" as="geometry" />
        </mxCell>
        <mxCell id="69FnCZtDJT8fpM_irl-X-10" value="IP-用户名-密码" style="rounded=0;whiteSpace=wrap;html=1;strokeColor=#B3B3B3;" vertex="1" parent="1">
          <mxGeometry x="362.5" y="5110" width="102.5" height="30" as="geometry" />
        </mxCell>
        <mxCell id="69FnCZtDJT8fpM_irl-X-11" style="edgeStyle=orthogonalEdgeStyle;rounded=0;orthogonalLoop=1;jettySize=auto;html=1;entryX=0.5;entryY=0;entryDx=0;entryDy=0;" edge="1" parent="1" source="69FnCZtDJT8fpM_irl-X-12" target="69FnCZtDJT8fpM_irl-X-17">
          <mxGeometry relative="1" as="geometry" />
        </mxCell>
        <mxCell id="69FnCZtDJT8fpM_irl-X-12" value="IP-免密" style="rounded=0;whiteSpace=wrap;html=1;strokeColor=#B3B3B3;" vertex="1" parent="1">
          <mxGeometry x="515" y="5110" width="80" height="30" as="geometry" />
        </mxCell>
        <mxCell id="69FnCZtDJT8fpM_irl-X-13" value="方式" style="text;html=1;strokeColor=none;fillColor=none;align=center;verticalAlign=middle;whiteSpace=wrap;rounded=0;" vertex="1" parent="1">
          <mxGeometry x="452.5" y="5080" width="60" height="30" as="geometry" />
        </mxCell>
        <mxCell id="69FnCZtDJT8fpM_irl-X-14" style="edgeStyle=orthogonalEdgeStyle;rounded=0;orthogonalLoop=1;jettySize=auto;html=1;" edge="1" parent="1" source="69FnCZtDJT8fpM_irl-X-15" target="69FnCZtDJT8fpM_irl-X-2">
          <mxGeometry relative="1" as="geometry" />
        </mxCell>
        <mxCell id="69FnCZtDJT8fpM_irl-X-15" value="下载安装文件" style="whiteSpace=wrap;html=1;strokeColor=#B3B3B3;rounded=0;" vertex="1" parent="1">
          <mxGeometry x="557.5" y="5009" width="80" height="34" as="geometry" />
        </mxCell>
        <mxCell id="69FnCZtDJT8fpM_irl-X-16" style="edgeStyle=orthogonalEdgeStyle;rounded=0;orthogonalLoop=1;jettySize=auto;html=1;entryX=0.5;entryY=0;entryDx=0;entryDy=0;fontSize=10;" edge="1" parent="1" source="69FnCZtDJT8fpM_irl-X-17" target="69FnCZtDJT8fpM_irl-X-29">
          <mxGeometry relative="1" as="geometry" />
        </mxCell>
        <mxCell id="69FnCZtDJT8fpM_irl-X-17" value="安装配置" style="shape=parallelogram;perimeter=parallelogramPerimeter;whiteSpace=wrap;html=1;fixedSize=1;strokeColor=#B3B3B3;" vertex="1" parent="1">
          <mxGeometry x="420" y="5200" width="120" height="60" as="geometry" />
        </mxCell>
        <mxCell id="69FnCZtDJT8fpM_irl-X-18" value="&lt;h1 style=&quot;font-size: 10px;&quot;&gt;安装配置&lt;/h1&gt;&lt;p style=&quot;font-size: 10px;&quot;&gt;K8S-Maser&lt;br style=&quot;font-size: 10px;&quot;&gt;172.19.1.1&lt;/p&gt;&lt;p style=&quot;font-size: 10px;&quot;&gt;k8s-node&lt;br style=&quot;font-size: 10px;&quot;&gt;&lt;span style=&quot;background-color: initial; font-size: 10px;&quot;&gt;172.19.1.2&lt;/span&gt;&lt;/p&gt;" style="text;html=1;strokeColor=none;fillColor=none;spacing=5;spacingTop=-20;overflow=hidden;rounded=0;fontSize=10;" vertex="1" parent="1">
          <mxGeometry x="320" y="5185" width="86.25" height="90" as="geometry" />
        </mxCell>
        <mxCell id="69FnCZtDJT8fpM_irl-X-19" style="edgeStyle=orthogonalEdgeStyle;rounded=0;orthogonalLoop=1;jettySize=auto;html=1;entryX=0.661;entryY=-0.023;entryDx=0;entryDy=0;entryPerimeter=0;fontSize=21;" edge="1" parent="1" source="69FnCZtDJT8fpM_irl-X-23" target="69FnCZtDJT8fpM_irl-X-36">
          <mxGeometry relative="1" as="geometry" />
        </mxCell>
        <mxCell id="69FnCZtDJT8fpM_irl-X-20" style="edgeStyle=orthogonalEdgeStyle;rounded=0;orthogonalLoop=1;jettySize=auto;html=1;entryX=0.5;entryY=0;entryDx=0;entryDy=0;fontSize=21;exitX=0.5;exitY=1;exitDx=0;exitDy=0;" edge="1" parent="1" source="69FnCZtDJT8fpM_irl-X-23" target="69FnCZtDJT8fpM_irl-X-38">
          <mxGeometry relative="1" as="geometry">
            <mxPoint x="945" y="4940" as="sourcePoint" />
          </mxGeometry>
        </mxCell>
        <mxCell id="69FnCZtDJT8fpM_irl-X-21" style="edgeStyle=orthogonalEdgeStyle;rounded=0;orthogonalLoop=1;jettySize=auto;html=1;fontSize=21;" edge="1" parent="1" source="69FnCZtDJT8fpM_irl-X-23" target="69FnCZtDJT8fpM_irl-X-40">
          <mxGeometry relative="1" as="geometry">
            <Array as="points">
              <mxPoint x="1015" y="4980" />
              <mxPoint x="1216" y="4980" />
            </Array>
          </mxGeometry>
        </mxCell>
        <mxCell id="69FnCZtDJT8fpM_irl-X-22" style="edgeStyle=orthogonalEdgeStyle;rounded=0;orthogonalLoop=1;jettySize=auto;html=1;entryX=0.5;entryY=0;entryDx=0;entryDy=0;fontSize=21;" edge="1" parent="1" source="69FnCZtDJT8fpM_irl-X-23" target="69FnCZtDJT8fpM_irl-X-34">
          <mxGeometry relative="1" as="geometry">
            <Array as="points">
              <mxPoint x="1015" y="4980" />
              <mxPoint x="785" y="4980" />
            </Array>
          </mxGeometry>
        </mxCell>
        <mxCell id="69FnCZtDJT8fpM_irl-X-23" value="主控机/master" style="rounded=0;whiteSpace=wrap;html=1;strokeColor=#B3B3B3;fontSize=10;" vertex="1" parent="1">
          <mxGeometry x="955" y="4870" width="120" height="60" as="geometry" />
        </mxCell>
        <mxCell id="69FnCZtDJT8fpM_irl-X-24" value="" style="endArrow=none;dashed=1;html=1;dashPattern=1 3;strokeWidth=2;rounded=0;fontSize=10;exitX=1;exitY=0.25;exitDx=0;exitDy=0;" edge="1" parent="1" source="69FnCZtDJT8fpM_irl-X-18">
          <mxGeometry width="50" height="50" relative="1" as="geometry">
            <mxPoint x="387.5" y="5275" as="sourcePoint" />
            <mxPoint x="437.4999999999998" y="5225" as="targetPoint" />
          </mxGeometry>
        </mxCell>
        <mxCell id="69FnCZtDJT8fpM_irl-X-25" style="edgeStyle=orthogonalEdgeStyle;rounded=0;orthogonalLoop=1;jettySize=auto;html=1;entryX=0;entryY=0.5;entryDx=0;entryDy=0;fontSize=10;" edge="1" parent="1" source="69FnCZtDJT8fpM_irl-X-29" target="69FnCZtDJT8fpM_irl-X-23">
          <mxGeometry relative="1" as="geometry">
            <Array as="points">
              <mxPoint x="700" y="5335" />
              <mxPoint x="700" y="4900" />
              <mxPoint x="755" y="4900" />
            </Array>
          </mxGeometry>
        </mxCell>
        <mxCell id="69FnCZtDJT8fpM_irl-X-26" value="ssh" style="edgeLabel;html=1;align=center;verticalAlign=middle;resizable=0;points=[];fontSize=10;" vertex="1" connectable="0" parent="69FnCZtDJT8fpM_irl-X-25">
          <mxGeometry x="0.4499" y="1" relative="1" as="geometry">
            <mxPoint x="-24" y="221" as="offset" />
          </mxGeometry>
        </mxCell>
        <mxCell id="69FnCZtDJT8fpM_irl-X-27" style="edgeStyle=orthogonalEdgeStyle;rounded=0;orthogonalLoop=1;jettySize=auto;html=1;fontSize=10;entryX=0;entryY=0.5;entryDx=0;entryDy=0;" edge="1" parent="1" source="69FnCZtDJT8fpM_irl-X-29" target="69FnCZtDJT8fpM_irl-X-1">
          <mxGeometry relative="1" as="geometry">
            <mxPoint x="890" y="5530" as="targetPoint" />
            <Array as="points">
              <mxPoint x="700" y="5335" />
              <mxPoint x="700" y="5680" />
            </Array>
          </mxGeometry>
        </mxCell>
        <mxCell id="69FnCZtDJT8fpM_irl-X-28" value="ssh" style="edgeLabel;html=1;align=center;verticalAlign=middle;resizable=0;points=[];fontSize=10;" vertex="1" connectable="0" parent="69FnCZtDJT8fpM_irl-X-27">
          <mxGeometry x="0.9818" relative="1" as="geometry">
            <mxPoint x="-191" y="-195" as="offset" />
          </mxGeometry>
        </mxCell>
        <mxCell id="69FnCZtDJT8fpM_irl-X-29" value="初始化模块" style="shape=step;perimeter=stepPerimeter;whiteSpace=wrap;html=1;fixedSize=1;strokeColor=#B3B3B3;fontSize=10;" vertex="1" parent="1">
          <mxGeometry x="420" y="5310" width="120" height="50" as="geometry" />
        </mxCell>
        <mxCell id="69FnCZtDJT8fpM_irl-X-30" value="传输脚本及安装文件&lt;br&gt;安装ansible" style="text;html=1;strokeColor=none;fillColor=none;align=center;verticalAlign=middle;whiteSpace=wrap;rounded=0;fontSize=10;" vertex="1" parent="1">
          <mxGeometry x="635" y="5140" width="130" height="30" as="geometry" />
        </mxCell>
        <mxCell id="69FnCZtDJT8fpM_irl-X-31" value="win/其他图形化UI" style="text;html=1;strokeColor=none;fillColor=none;align=center;verticalAlign=middle;whiteSpace=wrap;rounded=0;fontSize=21;" vertex="1" parent="1">
          <mxGeometry x="384" y="4800" width="186" height="30" as="geometry" />
        </mxCell>
        <mxCell id="69FnCZtDJT8fpM_irl-X-32" value="集群" style="text;html=1;strokeColor=none;fillColor=none;align=center;verticalAlign=middle;whiteSpace=wrap;rounded=0;fontSize=21;" vertex="1" parent="1">
          <mxGeometry x="925" y="4822" width="200" height="30" as="geometry" />
        </mxCell>
        <mxCell id="69FnCZtDJT8fpM_irl-X-33" style="edgeStyle=orthogonalEdgeStyle;rounded=0;orthogonalLoop=1;jettySize=auto;html=1;entryX=0.5;entryY=0;entryDx=0;entryDy=0;fontSize=11;" edge="1" parent="1" source="69FnCZtDJT8fpM_irl-X-34" target="69FnCZtDJT8fpM_irl-X-43">
          <mxGeometry relative="1" as="geometry" />
        </mxCell>
        <mxCell id="69FnCZtDJT8fpM_irl-X-34" value="master" style="rounded=0;whiteSpace=wrap;html=1;strokeColor=#B3B3B3;fontSize=21;" vertex="1" parent="1">
          <mxGeometry x="725" y="5030" width="120" height="60" as="geometry" />
        </mxCell>
        <mxCell id="69FnCZtDJT8fpM_irl-X-35" style="edgeStyle=orthogonalEdgeStyle;rounded=0;orthogonalLoop=1;jettySize=auto;html=1;fontSize=11;" edge="1" parent="1" source="69FnCZtDJT8fpM_irl-X-36">
          <mxGeometry relative="1" as="geometry">
            <mxPoint x="1010" y="5170" as="targetPoint" />
            <Array as="points">
              <mxPoint x="930" y="5130" />
              <mxPoint x="1010" y="5130" />
            </Array>
          </mxGeometry>
        </mxCell>
        <mxCell id="69FnCZtDJT8fpM_irl-X-36" value="node" style="rounded=0;whiteSpace=wrap;html=1;strokeColor=#B3B3B3;fontSize=21;" vertex="1" parent="1">
          <mxGeometry x="865" y="5030" width="120" height="60" as="geometry" />
        </mxCell>
        <mxCell id="69FnCZtDJT8fpM_irl-X-37" style="edgeStyle=orthogonalEdgeStyle;rounded=0;orthogonalLoop=1;jettySize=auto;html=1;entryX=0.5;entryY=0;entryDx=0;entryDy=0;fontSize=11;" edge="1" parent="1" source="69FnCZtDJT8fpM_irl-X-38" target="69FnCZtDJT8fpM_irl-X-43">
          <mxGeometry relative="1" as="geometry" />
        </mxCell>
        <mxCell id="69FnCZtDJT8fpM_irl-X-38" value="es" style="rounded=0;whiteSpace=wrap;html=1;strokeColor=#B3B3B3;fontSize=21;" vertex="1" parent="1">
          <mxGeometry x="1010" y="5030" width="120" height="60" as="geometry" />
        </mxCell>
        <mxCell id="69FnCZtDJT8fpM_irl-X-39" style="edgeStyle=orthogonalEdgeStyle;rounded=0;orthogonalLoop=1;jettySize=auto;html=1;entryX=0.5;entryY=0;entryDx=0;entryDy=0;fontSize=11;" edge="1" parent="1" source="69FnCZtDJT8fpM_irl-X-40" target="69FnCZtDJT8fpM_irl-X-43">
          <mxGeometry relative="1" as="geometry" />
        </mxCell>
        <mxCell id="69FnCZtDJT8fpM_irl-X-40" value="..." style="rounded=0;whiteSpace=wrap;html=1;strokeColor=#B3B3B3;fontSize=21;" vertex="1" parent="1">
          <mxGeometry x="1155.5" y="5030" width="120" height="60" as="geometry" />
        </mxCell>
        <mxCell id="69FnCZtDJT8fpM_irl-X-41" value="分发执行" style="text;html=1;strokeColor=none;fillColor=none;align=center;verticalAlign=middle;whiteSpace=wrap;rounded=0;fontSize=11;" vertex="1" parent="1">
          <mxGeometry x="931.5" y="4940" width="167" height="30" as="geometry" />
        </mxCell>
        <mxCell id="69FnCZtDJT8fpM_irl-X-42" style="edgeStyle=orthogonalEdgeStyle;rounded=0;orthogonalLoop=1;jettySize=auto;html=1;entryX=0.5;entryY=0;entryDx=0;entryDy=0;fontSize=11;" edge="1" parent="1" source="69FnCZtDJT8fpM_irl-X-43" target="69FnCZtDJT8fpM_irl-X-44">
          <mxGeometry relative="1" as="geometry" />
        </mxCell>
        <mxCell id="69FnCZtDJT8fpM_irl-X-43" value="执行结束/清理安装文件" style="rounded=0;whiteSpace=wrap;html=1;strokeColor=#B3B3B3;fontSize=21;" vertex="1" parent="1">
          <mxGeometry x="740.5" y="5170" width="535" height="60" as="geometry" />
        </mxCell>
        <mxCell id="69FnCZtDJT8fpM_irl-X-44" value="结束" style="ellipse;whiteSpace=wrap;html=1;strokeColor=#B3B3B3;fontSize=11;" vertex="1" parent="1">
          <mxGeometry x="948" y="5300" width="120" height="50" as="geometry" />
        </mxCell>
        <mxCell id="69FnCZtDJT8fpM_irl-X-45" value="&lt;h1 style=&quot;font-size: 10px;&quot;&gt;初始化项目&lt;/h1&gt;&lt;div style=&quot;font-size: 10px;&quot;&gt;集群环境&lt;/div&gt;&lt;div style=&quot;font-size: 10px;&quot;&gt;集群依赖组件&lt;/div&gt;&lt;div style=&quot;font-size: 10px;&quot;&gt;云管平台&lt;/div&gt;&lt;div style=&quot;font-size: 10px;&quot;&gt;lyra平台&lt;/div&gt;" style="text;html=1;strokeColor=none;fillColor=none;spacing=5;spacingTop=-20;whiteSpace=wrap;overflow=hidden;rounded=0;fontSize=10;" vertex="1" parent="1">
          <mxGeometry x="326.88" y="4910" width="83.12" height="80" as="geometry" />
        </mxCell>
        <mxCell id="69FnCZtDJT8fpM_irl-X-46" value="" style="endArrow=none;dashed=1;html=1;dashPattern=1 3;strokeWidth=2;rounded=0;fontSize=10;" edge="1" parent="1" source="69FnCZtDJT8fpM_irl-X-8" target="69FnCZtDJT8fpM_irl-X-45">
          <mxGeometry width="50" height="50" relative="1" as="geometry">
            <mxPoint x="390" y="5010" as="sourcePoint" />
            <mxPoint x="440" y="4960" as="targetPoint" />
          </mxGeometry>
        </mxCell>
        <mxCell id="69FnCZtDJT8fpM_irl-X-47" value="Ansible剧本&lt;br&gt;镜像文件&lt;br&gt;helm工具" style="text;html=1;strokeColor=none;fillColor=none;align=center;verticalAlign=middle;whiteSpace=wrap;rounded=0;fontSize=10;" vertex="1" parent="1">
          <mxGeometry x="635" y="5450" width="130" height="60" as="geometry" />
        </mxCell>
        <mxCell id="69FnCZtDJT8fpM_irl-X-48" value="云管平台/LYRA平台" style="text;html=1;strokeColor=none;fillColor=none;align=center;verticalAlign=middle;whiteSpace=wrap;rounded=0;fontSize=21;" vertex="1" parent="1">
          <mxGeometry x="951.5" y="5420" width="200" height="30" as="geometry" />
        </mxCell>
        <mxCell id="69FnCZtDJT8fpM_irl-X-49" style="edgeStyle=orthogonalEdgeStyle;rounded=0;orthogonalLoop=1;jettySize=auto;html=1;fontSize=10;" edge="1" parent="1" source="69FnCZtDJT8fpM_irl-X-53">
          <mxGeometry relative="1" as="geometry">
            <mxPoint x="869.5" y="5665" as="targetPoint" />
          </mxGeometry>
        </mxCell>
        <mxCell id="69FnCZtDJT8fpM_irl-X-50" value="是" style="edgeLabel;html=1;align=center;verticalAlign=middle;resizable=0;points=[];fontSize=10;" vertex="1" connectable="0" parent="69FnCZtDJT8fpM_irl-X-49">
          <mxGeometry x="0.7787" y="-1" relative="1" as="geometry">
            <mxPoint x="1" y="-25" as="offset" />
          </mxGeometry>
        </mxCell>
        <mxCell id="69FnCZtDJT8fpM_irl-X-51" style="edgeStyle=orthogonalEdgeStyle;rounded=0;orthogonalLoop=1;jettySize=auto;html=1;fontSize=10;entryX=0;entryY=0.5;entryDx=0;entryDy=0;" edge="1" parent="1" source="69FnCZtDJT8fpM_irl-X-53" target="69FnCZtDJT8fpM_irl-X-55">
          <mxGeometry relative="1" as="geometry">
            <mxPoint x="994" y="5590.066666666667" as="targetPoint" />
          </mxGeometry>
        </mxCell>
        <mxCell id="69FnCZtDJT8fpM_irl-X-52" value="否" style="edgeLabel;html=1;align=center;verticalAlign=middle;resizable=0;points=[];fontSize=10;" vertex="1" connectable="0" parent="69FnCZtDJT8fpM_irl-X-51">
          <mxGeometry x="0.8604" y="-1" relative="1" as="geometry">
            <mxPoint x="-36" y="-1" as="offset" />
          </mxGeometry>
        </mxCell>
        <mxCell id="69FnCZtDJT8fpM_irl-X-53" value="外部&lt;br&gt;数据库&amp;nbsp;" style="rhombus;whiteSpace=wrap;html=1;fontSize=10;" vertex="1" parent="1">
          <mxGeometry x="827" y="5565" width="85" height="50" as="geometry" />
        </mxCell>
        <mxCell id="69FnCZtDJT8fpM_irl-X-54" style="edgeStyle=orthogonalEdgeStyle;rounded=0;orthogonalLoop=1;jettySize=auto;html=1;entryX=0.5;entryY=0;entryDx=0;entryDy=0;fontSize=10;" edge="1" parent="1" source="69FnCZtDJT8fpM_irl-X-55" target="69FnCZtDJT8fpM_irl-X-58">
          <mxGeometry relative="1" as="geometry" />
        </mxCell>
        <mxCell id="69FnCZtDJT8fpM_irl-X-55" value="初始化模块" style="shape=step;perimeter=stepPerimeter;whiteSpace=wrap;html=1;fixedSize=1;fontSize=10;" vertex="1" parent="1">
          <mxGeometry x="979.5" y="5567.5" width="115" height="45" as="geometry" />
        </mxCell>
        <mxCell id="69FnCZtDJT8fpM_irl-X-56" value="&lt;h1&gt;初始化模块&lt;/h1&gt;&lt;p&gt;ansible playbook&lt;br&gt;&amp;nbsp; &amp;nbsp; 镜像的导入&lt;br&gt;&amp;nbsp; &amp;nbsp; 执行 helmchart&lt;br&gt;&amp;nbsp; &amp;nbsp; 文件清理&lt;br&gt;helm chart&amp;nbsp;&lt;br&gt;&amp;nbsp; &amp;nbsp; &amp;nbsp;安装参数配置等&amp;nbsp;&lt;br&gt;&lt;br&gt;&lt;br&gt;&lt;/p&gt;" style="text;html=1;strokeColor=none;fillColor=none;spacing=5;spacingTop=-20;whiteSpace=wrap;overflow=hidden;rounded=0;fontSize=10;" vertex="1" parent="1">
          <mxGeometry x="1151.5" y="5625" width="145" height="130" as="geometry" />
        </mxCell>
        <mxCell id="69FnCZtDJT8fpM_irl-X-57" style="edgeStyle=orthogonalEdgeStyle;rounded=0;orthogonalLoop=1;jettySize=auto;html=1;entryX=0.019;entryY=0.571;entryDx=0;entryDy=0;entryPerimeter=0;fontSize=10;" edge="1" parent="1" target="69FnCZtDJT8fpM_irl-X-58">
          <mxGeometry relative="1" as="geometry">
            <mxPoint x="914.5" y="5685" as="sourcePoint" />
          </mxGeometry>
        </mxCell>
        <mxCell id="69FnCZtDJT8fpM_irl-X-58" value="获取数据库&lt;br&gt;信息模块" style="shape=hexagon;perimeter=hexagonPerimeter2;whiteSpace=wrap;html=1;fixedSize=1;fontSize=10;" vertex="1" parent="1">
          <mxGeometry x="1010" y="5665" width="79.5" height="40" as="geometry" />
        </mxCell>
        <mxCell id="69FnCZtDJT8fpM_irl-X-59" style="edgeStyle=orthogonalEdgeStyle;rounded=0;orthogonalLoop=1;jettySize=auto;html=1;fontSize=10;" edge="1" parent="1" source="69FnCZtDJT8fpM_irl-X-60" target="69FnCZtDJT8fpM_irl-X-63">
          <mxGeometry relative="1" as="geometry" />
        </mxCell>
        <mxCell id="69FnCZtDJT8fpM_irl-X-60" value="配置模块" style="shape=parallelogram;perimeter=parallelogramPerimeter;whiteSpace=wrap;html=1;fixedSize=1;fontSize=10;" vertex="1" parent="1">
          <mxGeometry x="814.5" y="5665" width="107" height="40" as="geometry" />
        </mxCell>
        <mxCell id="69FnCZtDJT8fpM_irl-X-61" value="结束" style="ellipse;whiteSpace=wrap;html=1;fontSize=10;" vertex="1" parent="1">
          <mxGeometry x="838" y="5825" width="60" height="40" as="geometry" />
        </mxCell>
        <mxCell id="69FnCZtDJT8fpM_irl-X-62" style="edgeStyle=orthogonalEdgeStyle;rounded=0;orthogonalLoop=1;jettySize=auto;html=1;entryX=0.5;entryY=0;entryDx=0;entryDy=0;fontSize=10;" edge="1" parent="1" source="69FnCZtDJT8fpM_irl-X-63" target="69FnCZtDJT8fpM_irl-X-61">
          <mxGeometry relative="1" as="geometry" />
        </mxCell>
        <mxCell id="69FnCZtDJT8fpM_irl-X-63" value="初始化模块" style="shape=step;perimeter=stepPerimeter;whiteSpace=wrap;html=1;fixedSize=1;fontSize=10;" vertex="1" parent="1">
          <mxGeometry x="823" y="5755" width="90" height="40" as="geometry" />
        </mxCell>
        <mxCell id="69FnCZtDJT8fpM_irl-X-64" value="" style="endArrow=none;dashed=1;html=1;rounded=0;fontSize=10;entryX=0.5;entryY=0;entryDx=0;entryDy=0;" edge="1" parent="1" target="69FnCZtDJT8fpM_irl-X-56">
          <mxGeometry width="50" height="50" relative="1" as="geometry">
            <mxPoint x="1076.67" y="5590" as="sourcePoint" />
            <mxPoint x="1316.17" y="5505" as="targetPoint" />
          </mxGeometry>
        </mxCell>
        <mxCell id="69FnCZtDJT8fpM_irl-X-65" style="edgeStyle=orthogonalEdgeStyle;rounded=0;orthogonalLoop=1;jettySize=auto;html=1;fontSize=10;" edge="1" parent="1" source="69FnCZtDJT8fpM_irl-X-66" target="69FnCZtDJT8fpM_irl-X-53">
          <mxGeometry relative="1" as="geometry" />
        </mxCell>
        <mxCell id="69FnCZtDJT8fpM_irl-X-66" value="开始" style="ellipse;whiteSpace=wrap;html=1;fontSize=10;" vertex="1" parent="1">
          <mxGeometry x="839.5" y="5485" width="60" height="40" as="geometry" />
        </mxCell>
        <mxCell id="69FnCZtDJT8fpM_irl-X-67" value="Master&amp;nbsp;" style="text;html=1;strokeColor=none;fillColor=none;align=center;verticalAlign=middle;whiteSpace=wrap;rounded=0;dashed=1;fontSize=18;fontStyle=1" vertex="1" parent="1">
          <mxGeometry x="1147" y="5490" width="60" height="30" as="geometry" />
        </mxCell>
      </root>
    </mxGraphModel>
  </diagram>
</mxfile>
